<svg xmlns="http://www.w3.org/2000/svg"  viewBox="0 0 48 48" width="48px" height="48px"><path fill="#fff" d="M24,8L5,40h38L24,8z"/><path fill="#ff3d00" d="M24,8l19,32H5L24,8 M24,5c-1.1,0-2,0.6-2.6,1.5l-19,32c-0.6,0.9-0.6,2.1,0,3C2.9,42.4,3.9,43,5,43 h38c1.1,0,2.1-0.6,2.6-1.5c0.5-0.9,0.5-2.1,0-3l-19-32C26,5.6,25.1,5,24,5z"/><path fill="#455a64" d="M26 23c-1.1 0-2-.9-2-2 0-1.1.9-2 2-2 1.1 0 2 .9 2 2C28 22.1 27.1 23 26 23M22.9 38c-.5 0-1-.4-1-.9l-.5-3.9-2.2-2c-.4-.5-.1-1.5.4-1.9.5-.4 1.1-.3 1.5.2l2.3 2.9.6 4.5c.1.6-.3 1.1-.9 1.2C23 38 23 38 22.9 38zM26.6 31.8c-.4 0-.9-.3-1-.7l-2-5.6c-.2-.6.1-1.1.7-1.3.6-.2 1.1.1 1.3.7l2 5.6c.2.6-.1 1.1-.7 1.3C26.8 31.8 26.7 31.8 26.6 31.8z"/><path fill="#455a64" d="M25.1,24.2l-1.3-0.9c-0.6-0.4-1.4-0.3-1.8,0.3l-3.5,4.6c-0.2,0.2-0.3,0.4-0.3,0.5l-2,8 c-0.2,0.6,0.2,1.1,0.7,1.3c0.1,0,0.2,0,0.3,0c0.4,0,0.9-0.3,1-0.8l2-6.4l-0.1,0c0.6,0.4,1.4,0.3,1.8-0.3l3.5-4.6 C25.8,25.4,25.6,24.6,25.1,24.2z"/><path fill="#455a64" d="M30.2,34.2c-0.1,0-0.2,0-0.4-0.1l-13-6.7c-0.4-0.2-0.5-0.7-0.3-1.1c0.2-0.4,0.7-0.5,1.1-0.3l13,6.7 c0.4,0.2,0.5,0.7,0.3,1.1C30.8,34,30.5,34.2,30.2,34.2z"/><path fill="#455a64" d="M17.1 27.7c-.2 0-.5-.1-.7-.2-.5-.4-.5-1-.2-1.5l2.4-3h4.2c.6 0 1.1.5 1.1 1.1s-.5 1.1-1.1 1.1h-3.2l-1.8 2.2C17.7 27.6 17.4 27.7 17.1 27.7zM26 38h9c0 0-2.5-5.4-2.7-6-.3-.7-.6-1-.9-1-.4 0-.6.2-1.6 1.9-.4.8-.9 1.3-1.3 1.3-.4 0-.7.1-.8.4C27.4 35.1 26 38 26 38z"/></svg>