<svg xmlns="http://www.w3.org/2000/svg" width="48" height="48" viewBox="0 0 48 48" version="1.1"><path d="M 11 11.500 C 11 12.325, 11.675 13, 12.500 13 C 13.325 13, 14 12.325, 14 11.500 C 14 10.675, 13.325 10, 12.500 10 C 11.675 10, 11 10.675, 11 11.500 M 34 11.500 C 34 12.325, 34.675 13, 35.500 13 C 36.325 13, 37 12.325, 37 11.500 C 37 10.675, 36.325 10, 35.500 10 C 34.675 10, 34 10.675, 34 11.500 M 7 19.167 C 7 20.358, 7.127 21.146, 7.283 20.917 C 7.439 20.688, 8.169 19.712, 8.905 18.750 C 10.052 17.252, 10.011 17, 8.622 17 C 7.625 17, 7 17.835, 7 19.167 M 13.241 18.986 C 11.587 21.634, 11.666 22, 13.885 22 C 14.922 22, 16.507 20.875, 17.408 19.500 C 18.990 17.085, 18.968 17, 16.764 17 C 15.508 17, 13.923 17.894, 13.241 18.986 M 22.241 18.986 C 20.587 21.634, 20.666 22, 22.885 22 C 23.922 22, 25.507 20.875, 26.408 19.500 C 27.990 17.085, 27.968 17, 25.764 17 C 24.508 17, 22.923 17.894, 22.241 18.986 M 31.241 18.986 C 29.587 21.634, 29.666 22, 31.885 22 C 32.922 22, 34.507 20.875, 35.408 19.500 C 36.990 17.085, 36.968 17, 34.764 17 C 33.508 17, 31.923 17.894, 31.241 18.986 M 39.583 19.866 C 39.152 20.563, 39.070 21.403, 39.400 21.733 C 40.295 22.628, 41.271 21.312, 40.787 19.862 C 40.449 18.846, 40.213 18.846, 39.583 19.866 M 9 32 C 9 39.333, 9.167 40, 11 40 C 12.833 40, 13 39.333, 13 32 C 13 24.667, 12.833 24, 11 24 C 9.167 24, 9 24.667, 9 32 M 35 32 C 35 39.333, 35.167 40, 37 40 C 38.833 40, 39 39.333, 39 32 C 39 24.667, 38.833 24, 37 24 C 35.167 24, 35 24.667, 35 32" stroke="none" fill="#c1c3c6" fill-rule="evenodd"/><path d="M 9.382 9.448 C 9.048 10.318, 9.008 11.923, 9.294 13.015 C 9.705 14.589, 9.314 15, 7.406 15 C 5.221 15, 5 15.413, 5 19.500 L 5 24 24 24 L 43 24 43 19.500 C 43 15.494, 42.752 15, 40.740 15 C 38.856 15, 38.482 14.461, 38.490 11.750 C 38.499 8.803, 38.220 8.500, 35.500 8.500 C 32.780 8.500, 32.501 8.803, 32.510 11.750 L 32.519 15 24 15 L 15.481 15 15.490 11.750 C 15.499 8.943, 15.124 8.457, 12.744 8.183 C 10.938 7.975, 9.780 8.411, 9.382 9.448 M 11 11.500 C 11 12.325, 11.675 13, 12.500 13 C 13.325 13, 14 12.325, 14 11.500 C 14 10.675, 13.325 10, 12.500 10 C 11.675 10, 11 10.675, 11 11.500 M 34 11.500 C 34 12.325, 34.675 13, 35.500 13 C 36.325 13, 37 12.325, 37 11.500 C 37 10.675, 36.325 10, 35.500 10 C 34.675 10, 34 10.675, 34 11.500 M 7 19.167 C 7 20.358, 7.127 21.146, 7.283 20.917 C 7.439 20.688, 8.169 19.712, 8.905 18.750 C 10.052 17.252, 10.011 17, 8.622 17 C 7.625 17, 7 17.835, 7 19.167 M 13.241 18.986 C 11.587 21.634, 11.666 22, 13.885 22 C 14.922 22, 16.507 20.875, 17.408 19.500 C 18.990 17.085, 18.968 17, 16.764 17 C 15.508 17, 13.923 17.894, 13.241 18.986 M 22.241 18.986 C 20.587 21.634, 20.666 22, 22.885 22 C 23.922 22, 25.507 20.875, 26.408 19.500 C 27.990 17.085, 27.968 17, 25.764 17 C 24.508 17, 22.923 17.894, 22.241 18.986 M 31.241 18.986 C 29.587 21.634, 29.666 22, 31.885 22 C 32.922 22, 34.507 20.875, 35.408 19.500 C 36.990 17.085, 36.968 17, 34.764 17 C 33.508 17, 31.923 17.894, 31.241 18.986 M 39.583 19.866 C 39.152 20.563, 39.070 21.403, 39.400 21.733 C 40.295 22.628, 41.271 21.312, 40.787 19.862 C 40.449 18.846, 40.213 18.846, 39.583 19.866 M 13 33 C 13 33.606, 17.333 34, 24 34 C 30.667 34, 35 33.606, 35 33 C 35 32.394, 30.667 32, 24 32 C 17.333 32, 13 32.394, 13 33" stroke="none" fill="#e35217" fill-rule="evenodd"/></svg>