<svg xmlns="http://www.w3.org/2000/svg"  viewBox="0 0 68 68" width="53px" height="53px"><path d="M 31.599609 11.900391 C 30.999609 11.900391 30.599609 12.300391 30.599609 12.900391 L 30.599609 15.599609 C 30.599609 16.199609 30.999609 16.599609 31.599609 16.599609 C 32.199609 16.599609 32.599609 16.199609 32.599609 15.599609 L 32.599609 12.900391 C 32.599609 12.300391 32.099609 11.900391 31.599609 11.900391 z M 26.136719 14.199219 C 25.874219 14.199219 25.600391 14.3 25.400391 14.5 C 25.000391 14.9 25.000391 15.500391 25.400391 15.900391 L 27.300781 17.800781 C 27.700781 18.200781 28.299219 18.200781 28.699219 17.800781 C 29.099219 17.400781 29.099219 16.800391 28.699219 16.400391 L 26.800781 14.5 C 26.650781 14.3 26.399219 14.199219 26.136719 14.199219 z M 37 14.300781 C 36.75 14.300781 36.500781 14.399609 36.300781 14.599609 L 34.400391 16.5 C 34.000391 16.9 34.000391 17.500391 34.400391 17.900391 C 34.800391 18.300391 35.400781 18.300391 35.800781 17.900391 L 37.699219 16 C 38.099219 15.6 38.099219 14.999609 37.699219 14.599609 C 37.499219 14.399609 37.25 14.300781 37 14.300781 z M 31.400391 18.400391 C 29.400391 18.400391 27.800781 20 27.800781 22 L 27.800781 23.900391 L 22.5 23.900391 C 21.1 23.900391 19.799609 24.600781 19.099609 25.800781 L 15 32.5 L 8.3007812 33 C 7.9007812 33 7.6003906 33.299219 7.4003906 33.699219 C 7.3003906 33.899219 4.3007812 43.000391 4.3007812 42.900391 C 4.4007812 43.000391 2 42.700391 2 44.900391 L 2 48 C 2 49.1 2.9 50 4 50 L 9.5996094 50 C 10.099609 53.4 13 56 16.5 56 C 20 56 22.900391 53.4 23.400391 50 L 43.5 50 C 44 53.4 46.900391 56 50.400391 56 C 53.900391 56 56.800781 53.4 57.300781 50 L 63.900391 50 C 65.000391 50 65.900391 49.1 65.900391 48 L 65.900391 44.699219 C 65.900391 44.199219 65.700781 43.700781 65.300781 43.300781 C 64.900781 42.900781 64.400391 42.699219 63.900391 42.699219 L 61.900391 42.699219 L 60 35.699219 C 59.7 34.499219 58.700391 33.6 57.400391 33.5 L 46.800781 32.5 L 41.5 25.5 C 40.7 24.5 39.600781 23.900391 38.300781 23.900391 L 35 23.900391 L 35 22 C 35 20 33.400391 18.400391 31.400391 18.400391 z M 31.5 20.599609 C 32.4 20.599609 33.099609 21.299219 33.099609 22.199219 L 33.099609 24.099609 L 29.900391 24.099609 C 30.000391 23.499609 29.3 20.599609 31.5 20.599609 z M 22.599609 26 L 30.099609 26 L 30.099609 32.5 L 17.5 32.5 L 20.900391 27 C 21.300391 26.4 21.899609 26 22.599609 26 z M 32 26.099609 L 38.400391 26.099609 C 39.100391 26.099609 39.699609 26.400391 40.099609 26.900391 L 44.400391 32.599609 L 32 32.599609 L 32 26.099609 z M 16.261719 34.636719 C 18.399219 34.599219 21.65 34.649219 30 34.699219 L 30 42.099609 C 30 42.699609 30.4 43.099609 31 43.099609 C 31.6 43.099609 32 42.699609 32 42.099609 L 32 34.699219 L 46.199219 34.699219 L 57.199219 35.699219 C 57.599219 35.699219 57.899609 36.000391 58.099609 36.400391 L 58.300781 37.199219 L 55.800781 37.199219 C 55.200781 37.199219 54.800781 37.599219 54.800781 38.199219 L 54.800781 41.5 C 54.800781 42 55.200781 42.5 55.800781 42.5 L 59.800781 42.5 L 60.199219 44.099609 C 60.299219 44.499609 60.699219 44.800781 61.199219 44.800781 L 64 44.800781 L 64 48.099609 L 57.400391 48.099609 C 56.900391 44.699609 54 42.099609 50.5 42.099609 C 47 42.099609 44.099609 44.699609 43.599609 48.099609 L 32.099609 48.099609 L 32.099609 45.900391 C 32.099609 45.300391 31.699609 44.900391 31.099609 44.900391 C 30.499609 44.900391 30.099609 45.300391 30.099609 45.900391 L 30.099609 48.099609 L 23.599609 48.099609 C 23.099609 44.699609 20.199219 42.099609 16.699219 42.099609 C 13.199219 42.099609 10.300781 44.699609 9.8007812 48.099609 L 4 48 L 4 44.900391 L 5.1992188 44.900391 C 5.5992188 44.900391 5.9996094 44.599219 6.0996094 44.199219 L 6.6992188 42.400391 L 10.699219 42.400391 C 11.299219 42.400391 11.699219 42.000391 11.699219 41.400391 L 11.699219 38.099609 C 11.699219 37.599609 11.299219 37.099609 10.699219 37.099609 L 8.5 37.099609 L 9.1992188 35.099609 C 13.099219 34.799609 14.124219 34.674219 16.261719 34.636719 z M 23.099609 37.800781 C 22.499609 37.800781 22.099609 38.200781 22.099609 38.800781 C 22.099609 39.300781 22.499609 39.800781 23.099609 39.800781 L 27 39.800781 C 27.6 39.800781 28 39.400781 28 38.800781 C 28 38.200781 27.6 37.800781 27 37.800781 L 23.099609 37.800781 z M 35 37.800781 C 34.4 37.800781 34 38.200781 34 38.800781 C 34 39.400781 34.4 39.800781 35 39.800781 L 38.900391 39.800781 C 39.500391 39.800781 39.900391 39.400781 39.900391 38.800781 C 39.900391 38.200781 39.500391 37.800781 38.900391 37.800781 L 35 37.800781 z M 7.9003906 39.099609 L 9.8007812 39.099609 L 9.8007812 40.400391 L 7.5 40.400391 C 7.5 40.300391 7.9003906 38.999609 7.9003906 39.099609 z M 56.800781 39.199219 L 58.699219 39.199219 L 59.099609 40.5 L 56.800781 40.5 L 56.800781 39.199219 z M 16.5 44.099609 C 19.2 44.099609 21.5 46.299609 21.5 49.099609 C 21.5 51.799609 19.3 54.099609 16.5 54.099609 C 13.7 54.099609 11.5 51.799609 11.5 49.099609 C 11.5 46.299609 13.8 44.099609 16.5 44.099609 z M 50.5 44.099609 C 53.3 44.099609 55.5 46.399609 55.5 49.099609 C 55.5 51.899609 53.2 54.099609 50.5 54.099609 C 47.7 54.099609 45.5 51.799609 45.5 49.099609 C 45.5 46.299609 47.7 44.099609 50.5 44.099609 z M 16.5 46.099609 C 14.8 46.099609 13.5 47.399609 13.5 49.099609 C 13.5 50.799609 14.8 52.099609 16.5 52.099609 C 18.2 52.099609 19.5 50.799609 19.5 49.099609 C 19.5 47.399609 18.2 46.099609 16.5 46.099609 z M 50.5 46.099609 C 48.8 46.099609 47.5 47.399609 47.5 49.099609 C 47.5 50.799609 48.8 52.099609 50.5 52.099609 C 52.2 52.099609 53.5 50.799609 53.5 49.099609 C 53.5 47.499609 52.1 46.099609 50.5 46.099609 z M 16.5 48.099609 C 17.1 48.099609 17.5 48.499609 17.5 49.099609 C 17.5 49.599609 17.1 50.099609 16.5 50.099609 C 16 50.099609 15.5 49.599609 15.5 49.099609 C 15.5 48.599609 16 48.099609 16.5 48.099609 z M 50.5 48.099609 C 51.1 48.099609 51.5 48.599609 51.5 49.099609 C 51.5 49.699609 51 50.099609 50.5 50.099609 C 49.9 50.099609 49.5 49.599609 49.5 49.099609 C 49.5 48.499609 50 48.099609 50.5 48.099609 z"/></svg>