<svg xmlns="http://www.w3.org/2000/svg"  viewBox="0 0 512 512" width="64px" height="64px"><path d="M 359.76562 80.003906 A 8 8 0 0 0 352 88 L 352 104 A 8 8 0 0 0 360 112 A 8 8 0 0 0 368 104 L 368 88 A 8 8 0 0 0 359.76562 80.003906 z M 324.58398 100.65234 A 8 8 0 0 0 319.0293 114.34375 L 330.34375 125.65625 A 8 8 0 0 0 341.65625 114.34375 L 330.34375 103.0293 A 8 8 0 0 0 324.58398 100.65234 z M 395.04688 100.6582 A 8 8 0 0 0 389.65625 103.0293 L 378.34375 114.34375 A 8 8 0 0 0 384 128 A 7.977 7.977 0 0 0 389.65625 125.65625 L 400.9707 114.34375 A 8 8 0 0 0 395.04688 100.6582 z M 136 128 A 8 8 0 0 0 128 136 L 128 160 L 56 160 A 8 8 0 0 0 51.5625 161.34375 L 27.5625 177.34375 A 8 8 0 0 0 24 184 L 24 320 A 32.05 32.05 0 0 0 48.529297 351.11133 A 47.981 47.981 0 0 0 136 370.49219 A 47.975 47.975 0 0 0 223.32031 352 L 344.67969 352 A 48 48 0 0 0 440 344 C 440.41467 344 440.82633 343.98942 441.23633 343.96875 A 32.034 32.034 0 0 0 472 312 L 472 200 A 8 8 0 0 0 468.97266 193.73242 L 428.65234 161.73242 A 8 8 0 0 0 423.67969 160 L 381.76562 160 L 375.58984 141.4707 A 8 8 0 0 0 368 136 L 352 136 A 8 8 0 0 0 344.41016 141.4707 L 338.23438 160 L 336 160 A 8 8 0 0 0 328 168 L 328 256 L 320 256 L 320 168 A 8 8 0 0 0 312 160 L 240 160 L 240 136 A 8 8 0 0 0 232 128 L 136 128 z M 312 136 A 8 8 0 0 0 312 152 L 328 152 A 8 8 0 0 0 328 136 L 312 136 z M 392 136 A 8 8 0 0 0 384 144 A 8 8 0 0 0 392 152 L 408 152 A 8 8 0 0 0 408 136 L 392 136 z M 144 144 L 224 144 L 224 160 L 144 160 L 144 144 z M 357.76562 152 L 362.23438 152 L 364.90039 160 L 355.10156 160 L 357.76562 152 z M 58.421875 176 L 128 176 L 128 256 L 40 256 L 40 188.28125 L 58.421875 176 z M 240 176 L 304 176 L 304 256 L 240 256 L 240 176 z M 392 176 L 420.89258 176 L 456 203.86328 L 456 224 L 392 224 L 392 176 z M 448 264 L 456 264 L 456 272 L 448 272 L 448 264 z M 40 272 L 48 272 L 48 280 L 40 280 L 40 272 z M 94.669922 312.02734 A 32 32 0 0 1 128 344 A 32.036 32.036 0 0 1 96 376 A 32 32 0 0 1 94.669922 312.02734 z M 174.66992 312.02734 A 32 32 0 0 1 208 344 A 32.036 32.036 0 0 1 176 376 A 32 32 0 0 1 174.66992 312.02734 z M 390.66992 312.02734 A 32 32 0 0 1 424 344 A 32.036 32.036 0 0 1 392 376 A 32 32 0 0 1 390.66992 312.02734 z M 96 320 A 24 24 0 1 0 120 344 A 24.027 24.027 0 0 0 96 320 z M 176 320 A 24 24 0 1 0 200 344 A 24.027 24.027 0 0 0 176 320 z M 392 320 A 24 24 0 1 0 416 344 A 24.027 24.027 0 0 0 392 320 z"/></svg>