<svg xmlns="http://www.w3.org/2000/svg"  viewBox="0 0 48 48" width="48px" height="48px"><path fill="#90A4AE" d="M9 22H13V38H9zM35 22H39V38H35z"/><path fill="#FFF" d="M44,21.286C44,22.232,43.232,23,42.285,23H5.714C4.768,23,4,22.232,4,21.286v-8.572C4,11.768,4.768,11,5.714,11h36.571C43.232,11,44,11.768,44,12.714V21.286z"/><g><path fill="#FF3D00" d="M43,12v10H5V12H43 M43,10H5c-1.104,0-2,0.896-2,2v10c0,1.104,0.896,2,2,2h38c1.104,0,2-0.896,2-2V12C45,10.896,44.104,10,43,10L43,10z"/><path fill="#FF3D00" d="M31 23L39.022 11.468 38.32 11 34.527 11 26.192 23zM22 23L30.022 11.468 29.32 11 25.527 11 17.192 23zM12.978 23L21 11.468 20.298 11 16.505 11 8.17 23zM4 22.968L12 11.468 11.298 11 7.505 11 4 16.013zM44 11L43.527 11 35.192 23 40 23 44 17.287z"/></g></svg>