<svg xmlns="http://www.w3.org/2000/svg"  viewBox="0 0 50 50" width="50px" height="50px"><path d="M 23 4 C 19.704545 4 17 6.7045455 17 10 L 17 31 L 19 31 L 19 10 C 19 7.7954545 20.795455 6 23 6 L 26 6 C 27.683842 6 29.128556 7.0554605 29.716797 8.5292969 C 29.220044 8.7981685 28.571878 9.178104 27.914062 9.6542969 C 26.56623 10.629993 25 12.015854 25 14 L 25 15 L 29 15 A 2 2 0 0 0 31 17 A 2 2 0 0 0 33 15 L 37 15 L 37 14 C 37 12.015854 35.43377 10.629993 34.085938 9.6542969 C 32.982936 8.8558342 32.070897 8.4103 31.710938 8.2402344 C 30.951823 5.79173 28.682508 4 26 4 L 23 4 z M 31 10.152344 C 31.30894 10.29974 31.964551 10.588039 32.914062 11.275391 C 33.636978 11.798709 34.170538 12.408564 34.544922 13 L 27.455078 13 C 27.829462 12.408564 28.363023 11.798709 29.085938 11.275391 C 30.035449 10.588039 30.69106 10.29974 31 10.152344 z M 16 33 A 1.0001 1.0001 0 0 0 15 34 L 15 44 L 14 44 L 14 46 L 22 46 L 22 44 L 21 44 L 21 34 A 1.0001 1.0001 0 0 0 20 33 L 16 33 z M 17 35 L 19 35 L 19 44 L 17 44 L 17 35 z"/></svg>