<svg xmlns="http://www.w3.org/2000/svg"  viewBox="0 0 50 50" width="50px" height="50px"><path d="M 35 4 C 30.171875 4 28.335938 4.640625 27.9375 4.8125 C 26.753906 5.222656 24.996094 5.835938 24.21875 7.375 C 24.148438 7.511719 23.972656 7.882813 22.8125 10.9375 C 23.253906 11.070313 23.921875 11.3125 24.65625 11.6875 C 25.613281 9.164063 25.914063 8.453125 26 8.28125 C 26.421875 7.445313 27.75 6.996094 28.71875 6.65625 C 28.734375 6.648438 30.269531 6 35 6 C 39.726563 6 41.28125 6.65625 41.28125 6.65625 L 41.4375 6.71875 C 41.964844 6.871094 43.566406 7.332031 43.9375 8.1875 C 44.171875 8.734375 44.882813 10.574219 45.65625 12.59375 L 45.625 12.59375 L 45.6875 12.75 C 45.835938 13.128906 46.1875 14.019531 45.90625 14.4375 C 45.789063 14.605469 45.375 15 43.78125 15 L 27.75 15 C 27.757813 15.023438 27.769531 15.039063 27.78125 15.0625 C 27.839844 15.207031 27.925781 15.375 28 15.5625 C 28.015625 15.597656 28.015625 15.648438 28.03125 15.6875 C 28.109375 15.890625 28.214844 16.121094 28.3125 16.375 C 28.328125 16.410156 28.328125 16.433594 28.34375 16.46875 C 28.460938 16.769531 28.578125 17.101563 28.71875 17.46875 L 28.9375 18.03125 C 29.5625 18.003906 30.253906 18 31 18 C 35.570313 18 37.75 18.546875 38.6875 18.90625 C 39.207031 19.058594 40.164063 19.367188 41.125 19.9375 C 41.375 19.390625 41.960938 19 42.65625 19 L 44.875 19 C 45.488281 19 46 19.449219 46 20 C 46 20.652344 45.484375 20.953125 44.84375 21.28125 C 44.113281 21.652344 43.78125 21.886719 43.25 21.96875 C 43.375 22.171875 43.492188 22.363281 43.59375 22.59375 C 43.976563 23.472656 45.382813 27.140625 46.46875 30 L 48 30 C 49.101563 30 50 29.101563 50 28 L 50 18.4375 L 49.9375 18.28125 C 49.792969 17.894531 46.351563 8.769531 45.75 7.375 C 45.023438 5.691406 42.902344 5.066406 42.03125 4.8125 C 41.582031 4.628906 39.726563 4 35 4 Z M 15 12 C 10.171875 12 8.335938 12.644531 7.9375 12.8125 C 6.757813 13.222656 4.996094 13.835938 4.21875 15.375 C 3.996094 15.816406 3.222656 17.804688 2.40625 19.96875 L 2.375 19.96875 C 2.289063 20.1875 2.15625 20.507813 2.0625 20.875 C 1.136719 23.335938 0.246094 25.777344 0.0625 26.28125 L 0 26.4375 L 0 36 C 0 37.101563 0.898438 38 2 38 L 6 38 C 7.101563 38 8 37.101563 8 36 L 8 35 L 14 35 L 14 34.09375 L 14.125 33.75 L 14.1875 33.59375 L 14.21875 33.5 C 14.457031 32.851563 15.289063 30.5625 16.15625 28.25 C 16.269531 27.839844 16.398438 27.511719 16.5 27.25 L 17.03125 25.96875 C 17.660156 24.320313 17.988281 23.476563 18.1875 23 L 6.21875 23 C 5.082031 23 4.285156 22.78125 4.03125 22.40625 C 3.871094 22.167969 3.921875 21.816406 4 21.46875 C 4.960938 18.910156 5.800781 16.675781 6 16.28125 C 6.421875 15.445313 7.75 14.996094 8.71875 14.65625 C 8.734375 14.648438 10.269531 14 15 14 C 19.726563 14 21.28125 14.65625 21.28125 14.65625 L 21.4375 14.71875 C 21.964844 14.871094 23.570313 15.332031 23.9375 16.1875 C 24.074219 16.5 24.378906 17.300781 24.84375 18.5 C 25.382813 18.390625 26.054688 18.273438 26.875 18.1875 C 26.390625 16.925781 25.933594 15.832031 25.75 15.40625 C 25.023438 13.722656 22.902344 13.066406 22.03125 12.8125 C 21.578125 12.625 19.726563 12 15 12 Z M 31 20 C 26.171875 20 24.335938 20.644531 23.9375 20.8125 C 22.757813 21.222656 20.996094 21.835938 20.21875 23.375 C 19.996094 23.816406 19.222656 25.804688 18.40625 27.96875 L 18.375 27.96875 C 18.289063 28.1875 18.15625 28.507813 18.0625 28.875 C 17.140625 31.335938 16.246094 33.777344 16.0625 34.28125 L 16 34.4375 L 16 44 C 16 45.101563 16.898438 46 18 46 L 22 46 C 23.101563 46 24 45.101563 24 44 L 24 43 L 38 43 L 38 44 C 38 45.101563 38.898438 46 40 46 L 44 46 C 45.101563 46 46 45.101563 46 44 L 46 34.4375 L 45.9375 34.28125 C 45.792969 33.894531 42.355469 24.769531 41.75 23.375 C 41.023438 21.691406 38.902344 21.066406 38.03125 20.8125 C 37.582031 20.628906 35.726563 20 31 20 Z M 31 22 C 35.726563 22 37.28125 22.65625 37.28125 22.65625 L 37.4375 22.71875 C 37.964844 22.871094 39.566406 23.332031 39.9375 24.1875 C 40.171875 24.734375 40.882813 26.574219 41.65625 28.59375 L 41.6875 28.75 C 41.835938 29.128906 42.1875 30.019531 41.90625 30.4375 C 41.792969 30.605469 41.375 31 39.78125 31 L 22.21875 31 C 21.082031 31 20.289063 30.777344 20.03125 30.40625 C 19.871094 30.167969 19.921875 29.8125 20 29.46875 C 20.960938 26.90625 21.800781 24.675781 22 24.28125 C 22.421875 23.445313 23.75 22.996094 24.71875 22.65625 C 24.734375 22.648438 26.269531 22 31 22 Z M 5.125 27 L 7.34375 27 C 8.265625 27 9 27.671875 9 28.5 C 9 29.328125 8.265625 30 7.34375 30 C 6.414063 30 6.121094 29.773438 5.15625 29.28125 C 4.511719 28.953125 4 28.652344 4 28 C 4 27.449219 4.511719 27 5.125 27 Z M 21.125 35 L 23.34375 35 C 24.265625 35 25 35.671875 25 36.5 C 25 37.328125 24.265625 38 23.34375 38 C 22.414063 38 22.121094 37.773438 21.15625 37.28125 C 20.511719 36.953125 20 36.652344 20 36 C 20 35.445313 20.511719 35 21.125 35 Z M 38.65625 35 L 40.875 35 C 41.488281 35 42 35.445313 42 36 C 42 36.652344 41.484375 36.953125 40.84375 37.28125 C 39.878906 37.773438 39.585938 38 38.65625 38 C 37.734375 38 37 37.328125 37 36.5 C 37 35.671875 37.734375 35 38.65625 35 Z"/></svg>