<svg xmlns="http://www.w3.org/2000/svg"  viewBox="0 0 80 80" width="80px" height="80px"><path d="M66.121 29.293l-1.414 1.454L73 39.275v.039H62v.013c-.022-.001-.041-.013-.064-.013-.552 0-1 .448-1 1s.448 1 1 1c.023 0 .042-.011.064-.013v.013h11v.018l-8.293 8.528 1.414 1.454 10.707-11.011L66.121 29.293zM18 39.327v-.013H7.414v-.039l8.293-8.528-1.414-1.454L3.586 40.304l10.707 11.011 1.414-1.454-8.293-8.528v-.018H18v-.013c.521-.035.936-.458.936-.987S18.521 39.362 18 39.327zM21.936 39.314A1 1 0 1021.936 41.314 1 1 0 1021.936 39.314zM25.936 39.314A1 1 0 1025.936 41.314 1 1 0 1025.936 39.314zM29.936 39.314A1 1 0 1029.936 41.314 1 1 0 1029.936 39.314zM33.936 39.314A1 1 0 1033.936 41.314 1 1 0 1033.936 39.314zM37.936 39.314A1 1 0 1037.936 41.314 1 1 0 1037.936 39.314zM41.936 39.314A1 1 0 1041.936 41.314 1 1 0 1041.936 39.314zM45.936 39.314A1 1 0 1045.936 41.314 1 1 0 1045.936 39.314zM49.936 39.314A1 1 0 1049.936 41.314 1 1 0 1049.936 39.314zM53.936 39.314A1 1 0 1053.936 41.314 1 1 0 1053.936 39.314zM57.936 39.314A1 1 0 1057.936 41.314 1 1 0 1057.936 39.314z"/></svg>