<svg xmlns="http://www.w3.org/2000/svg"  viewBox="0 0 48 48" width="48px" height="48px"><defs><linearGradient id="P1WFb54wm1d7sqfJCq9T8a" x1="24" x2="24" y1="7" y2="41" gradientUnits="userSpaceOnUse"><stop offset="0" stop-color="#fff"/><stop offset=".325" stop-color="#fbfbfc"/><stop offset=".662" stop-color="#eeeef4"/><stop offset="1" stop-color="#dadae6"/></linearGradient><linearGradient id="P1WFb54wm1d7sqfJCq9T8b" x1="24" x2="24" y1="16" y2="32" gradientUnits="userSpaceOnUse"><stop offset="0" stop-color="#4a4a4a"/><stop offset="1" stop-color="#212121"/></linearGradient><linearGradient id="P1WFb54wm1d7sqfJCq9T8c" x1="24" x2="24" y1="6" y2="42" gradientUnits="userSpaceOnUse"><stop offset="0" stop-color="#ff8282"/><stop offset="1" stop-color="#d61313"/></linearGradient><radialGradient id="P1WFb54wm1d7sqfJCq9T8d" cx="24" cy="24" r="18" gradientUnits="userSpaceOnUse"><stop offset=".65" stop-color="#ff7575" stop-opacity="0"/><stop offset=".792" stop-color="#fe7474" stop-opacity=".011"/><stop offset=".843" stop-color="#fa6f6f" stop-opacity=".052"/><stop offset=".88" stop-color="#f46767" stop-opacity=".123"/><stop offset=".909" stop-color="#eb5c5c" stop-opacity=".225"/><stop offset=".935" stop-color="#df4d4d" stop-opacity=".358"/><stop offset=".957" stop-color="#d13b3b" stop-opacity=".522"/><stop offset=".977" stop-color="#bf2525" stop-opacity=".717"/><stop offset=".995" stop-color="#ac0c0c" stop-opacity=".936"/><stop offset="1" stop-color="#a60505"/></radialGradient></defs><g data-name="no bicycles"><circle cx="24" cy="24" r="17" fill="url(#P1WFb54wm1d7sqfJCq9T8a)"/><path fill="url(#P1WFb54wm1d7sqfJCq9T8b)" d="M16,32a5,5,0,1,1,5-5A5.006,5.006,0,0,1,16,32Zm0-8a3,3,0,1,0,3,3A3,3,0,0,0,16,24Zm16,8a5,5,0,1,1,5-5A5.006,5.006,0,0,1,32,32Zm0-8a3,3,0,1,0,3,3A3,3,0,0,0,32,24ZM16,28a.988.988,0,0,1-.5-.132,1,1,0,0,1-.372-1.364l4-7A1,1,0,0,1,20,19h7.634l.6-1H26a1,1,0,0,1,0-2h4a1,1,0,0,1,.857,1.515l-1.6,2.668L32.868,26.5A1,1,0,0,1,32,28H24a1,1,0,0,1-.857-1.515L26.434,21H20.58l-3.712,6.5A1,1,0,0,1,16,28Zm9.768-2h4.509l-2.2-3.851ZM22,17a1,1,0,0,0-1-1H17a1,1,0,0,0,0,2h4A1,1,0,0,0,22,17Z"/><path fill="url(#P1WFb54wm1d7sqfJCq9T8c)" d="M24,6A18.1,18.1,0,0,0,6,24.11,18,18,0,1,0,24,6ZM9,24a14.939,14.939,0,0,1,3.389-9.49l21.1,21.1A15,15,0,0,1,9,24Zm26.611,9.49-21.1-21.1a15,15,0,0,1,21.1,21.1Z"/><path fill="url(#P1WFb54wm1d7sqfJCq9T8d)" d="M24,6A18.1,18.1,0,0,0,6,24.11,18,18,0,1,0,24,6ZM9,24a14.939,14.939,0,0,1,3.389-9.49l21.1,21.1A15,15,0,0,1,9,24Zm26.611,9.49-21.1-21.1a15,15,0,0,1,21.1,21.1Z" opacity=".8"/></g></svg>