<svg xmlns="http://www.w3.org/2000/svg"  viewBox="0 0 48 48" width="48px" height="48px"><path fill="#fff" d="M41,24c0,9.4-7.6,17-17,17S7,33.4,7,24S14.6,7,24,7S41,14.6,41,24z"/><path fill="#263238" d="M26.6,13h-9.5L17,35h4v-9h5.6c4.5,0,7.4-2,7.4-6.3C34,16.4,32.2,13,26.6,13z M26.4,23H21v-7h5.4 c2.3,0,3.8,1.1,3.8,3.7C30.2,22.5,27.9,23,26.4,23z"/><path fill="#ff3d00" d="M24,8c8.8,0,16,7.2,16,16s-7.2,16-16,16S8,32.8,8,24S15.2,8,24,8 M24,4C13,4,4,13,4,24s9,20,20,20 s20-9,20-20S35,4,24,4z"/><path fill="#ff3d00" d="M22.3 6.2H26.3V42.300000000000004H22.3z" transform="rotate(-45.001 24.25 24.25)"/></svg>