<svg xmlns="http://www.w3.org/2000/svg"  viewBox="0 0 64 64" width="64px" height="64px"><circle cx="32" cy="32" r="28" fill="#e53935"/><circle cx="32" cy="32" r="22" fill="#fafafa"/><path fill="#e53935" d="M28.832,29.4453l-4-6a1.0378,1.0378,0,0,0-1.664,0l-4,6A1,1,0,0,0,20,31h2v9a1,1,0,0,0,1,1h2a1,1,0,0,0,1-1V31h2a1,1,0,0,0,.832-1.5547Z"/><path fill="#424242" d="M44.8745,37.5156A.9992.9992,0,0,0,44,37H42V18a1,1,0,0,0-1-1H37a1,1,0,0,0-1,1V37H34a1.0005,1.0005,0,0,0-.8481,1.53l5,8a1.0005,1.0005,0,0,0,1.6962,0l5-8A1,1,0,0,0,44.8745,37.5156Z"/></svg>