<svg xmlns="http://www.w3.org/2000/svg"  viewBox="0 0 48 48" width="48px" height="48px"><path fill="#fff" d="M44,24c0,11.044-8.956,20-20,20S4,35.044,4,24S12.956,4,24,4S44,12.956,44,24z"/><path fill="#ff3d00" d="M24,8c8.821,0,16,7.179,16,16s-7.179,16-16,16S8,32.821,8,24S15.179,8,24,8 M24,4C12.956,4,4,12.956,4,24s8.956,20,20,20s20-8.956,20-20S35.044,4,24,4z"/><path fill="#263238" d="M14.254 24.156l.809-6.969h7.719v2.434h-5.234l-.301 2.727c.219-.133.504-.25.859-.352.355-.098.699-.148 1.039-.148 1.313 0 2.32.402 3.023 1.203s1.059 1.926 1.059 3.375c0 .871-.191 1.664-.566 2.371-.379.707-.91 1.254-1.594 1.633S19.574 31 18.645 31c-.828 0-1.605-.176-2.332-.527-.727-.352-1.293-.836-1.703-1.449-.414-.613-.617-1.309-.609-2.082h3.066c.031.5.184.895.461 1.188s.645.438 1.098.438c1.027 0 1.543-.781 1.543-2.352 0-1.449-.629-2.18-1.887-2.18-.715 0-1.246.238-1.598.711L14.254 24.156zM34 25.242c0 1.844-.398 3.262-1.199 4.262-.805 1-1.934 1.496-3.391 1.496-1.469 0-2.605-.504-3.41-1.508s-1.207-2.422-1.207-4.25v-2.484c0-1.844.402-3.262 1.203-4.262C26.797 17.5 27.93 17 29.395 17c1.461 0 2.594.504 3.398 1.508S34 20.93 34 22.766V25.242zM30.941 22.352c0-.977-.121-1.707-.371-2.191-.246-.484-.641-.727-1.18-.727-.523 0-.906.227-1.148.676-.234.449-.363 1.129-.383 2.039v3.48c0 1.016.125 1.762.371 2.23.246.473.641.707 1.18.707.52 0 .902-.23 1.152-.688.246-.457.375-1.18.379-2.156V22.352z"/></svg>