<svg xmlns="http://www.w3.org/2000/svg" width="50" height="50" viewBox="0 0 50 50" version="1.1"><path d="" stroke="none" fill="#080404" fill-rule="evenodd"/><path d="M 26.243 9.157 C 24.214 11.186, 24.820 12.262, 27.598 11.565 C 29.481 11.092, 30.079 11.269, 29.771 12.206 C 29.537 12.918, 28.153 13.641, 26.695 13.814 C 25.237 13.987, 23.178 15.230, 22.119 16.576 C 20.508 18.624, 19.785 18.869, 17.694 18.074 C 16.319 17.551, 14.899 16.646, 14.538 16.062 C 13.592 14.531, 3.719 14.754, 1.529 16.355 C 0.402 17.179, -0.079 18.351, 0.301 19.343 C 0.798 20.636, 2.210 20.939, 7.106 20.804 C 12.889 20.645, 13.467 20.838, 16.142 23.833 C 18.127 26.055, 19 28.096, 19 30.516 L 19 34 23.800 34 C 29.319 34, 31 32.771, 31 28.734 C 31 25.253, 32.743 21.723, 34.061 22.538 C 34.630 22.889, 34.405 24.011, 33.511 25.288 C 31.118 28.704, 31.577 34.668, 34.455 37.545 C 40.464 43.555, 51 38.576, 51 29.728 C 51 27.494, 50.719 25.948, 50.376 26.291 C 50.033 26.634, 48.970 25.949, 48.014 24.769 C 46.844 23.324, 44.704 22.439, 41.470 22.061 L 36.663 21.500 34.503 15 C 32.704 9.589, 31.935 8.451, 29.914 8.207 C 28.579 8.046, 26.927 8.473, 26.243 9.157 M 35.619 14.750 C 36.540 18.601, 36.863 19, 39.059 19 C 40.611 19, 41 18.298, 41 15.500 C 41 12.273, 40.765 12, 37.981 12 C 35.195 12, 35.013 12.212, 35.619 14.750 M 3.223 23.557 C 1.354 24.866, 1 26.051, 1 31 C 1 35.949, 1.354 37.134, 3.223 38.443 C 6.697 40.877, 12.647 40.444, 15.545 37.545 C 18.526 34.565, 18.736 32, 16 32 C 14.900 32, 14 31.550, 14 31 C 14 30.450, 14.900 30, 16 30 C 18.736 30, 18.526 27.435, 15.545 24.455 C 12.647 21.556, 6.697 21.123, 3.223 23.557 M 36.638 25.500 C 36.955 26.325, 37.391 27, 37.607 27 C 37.823 27, 38 26.325, 38 25.500 C 38 24.675, 37.564 24, 37.031 24 C 36.499 24, 36.322 24.675, 36.638 25.500 M 7.239 26.666 C 3.687 28.097, 3.614 33.188, 7.118 35.063 C 9.138 36.144, 13 34.761, 13 32.956 C 13 32.394, 12.211 32.476, 11.132 33.149 C 8.663 34.692, 6 33.577, 6 31 C 6 28.423, 8.663 27.308, 11.132 28.851 C 12.211 29.524, 13 29.606, 13 29.044 C 13 28.200, 9.696 25.859, 8.816 26.079 C 8.642 26.122, 7.932 26.387, 7.239 26.666 M 40 26.878 C 40 27.360, 40.675 28.315, 41.500 29 C 43.156 30.374, 43.532 33, 42.073 33 C 41.562 33, 40.261 31.875, 39.179 30.501 C 37.616 28.514, 37.095 28.309, 36.638 29.501 C 35.259 33.094, 39.501 36.872, 42.882 35.063 C 46.489 33.133, 46.524 28.886, 42.948 26.972 C 40.702 25.770, 40 25.747, 40 26.878" stroke="none" fill="#040404" fill-rule="evenodd"/></svg>