<svg xmlns="http://www.w3.org/2000/svg"  viewBox="0 0 64 64" width="64px" height="64px"><path d="M 5 17 A 5.006 5.006 0 0 0 0 22 L 0 40 A 3 3 0 0 0 3 43 L 6.0996094 43 A 5 5 0 0 0 15.900391 43 L 40.099609 43 A 5 5 0 0 0 49.900391 43 L 55 43 A 3 3 0 0 0 58 40 L 58 32.224609 A 16.959 16.959 0 0 0 57.800781 29.638672 L 57.089844 25 L 59 25 L 59 28.5 A 2.5 2.5 0 0 0 64 28.5 L 64 23 A 3 3 0 0 0 61 20 L 54.853516 20 A 8.956 8.956 0 0 0 48.136719 17 L 5 17 z M 5 19 L 48.136719 19 A 6.964 6.964 0 0 1 55.056641 24.935547 L 55.824219 29.943359 A 15.026 15.026 0 0 1 56 32.224609 L 56 40 A 1 1 0 0 1 55 41 L 49.900391 41 A 5 5 0 0 0 40.099609 41 L 24 41 L 24 36 A 1 1 0 0 0 23 35 L 15 35 A 1 1 0 0 0 14 36 L 14 38.025391 A 4.948 4.948 0 0 0 11 37 A 5.009 5.009 0 0 0 6.0996094 41 L 3 41 A 1 1 0 0 1 2 40 L 2 22 A 3 3 0 0 1 5 19 z M 6 20 A 3 3 0 0 0 3 23 L 3 25 A 3 3 0 0 0 6 28 L 27 28 A 1 1 0 0 0 27 26 L 6 26 A 1 1 0 0 1 5 25 L 5 23 A 1 1 0 0 1 6 22 L 40 22 A 1 1 0 0 1 41 23 L 41 25 A 1 1 0 0 1 40 26 L 31 26 A 1 1 0 0 0 31 28 L 40 28 A 3 3 0 0 0 43 25 L 43 23 A 3 3 0 0 0 40 20 L 6 20 z M 45 20 A 1 1 0 0 0 44 21 L 44 23.408203 A 9.009 9.009 0 0 0 47.021484 30.134766 L 53.335938 35.746094 A 1 1 0 0 0 54 36 A 0.978 0.978 0 0 0 54.408203 35.912109 A 1 1 0 0 0 55 35 L 55 31 A 1 1 0 0 0 54.980469 30.800781 L 53.783203 24.824219 A 6.014 6.014 0 0 0 47.900391 20 L 45 20 z M 46 22 L 47.900391 22 A 4.009 4.009 0 0 1 51.822266 25.216797 L 53 31.099609 L 53 32.773438 L 48.349609 28.638672 A 7 7 0 0 1 46 23.408203 L 46 22 z M 56.197266 22 L 61 22 A 1 1 0 0 1 62 23 L 56.625 23 A 8.969 8.969 0 0 0 56.197266 22 z M 61 25 L 62 25 L 62 28.5 A 0.5 0.5 0 0 1 61 28.5 L 61 25 z M 16 37 L 22 37 L 22 41 L 16 41 L 16 37 z M 10.875 39.001953 A 3 3 0 0 1 14 42 A 3 3 0 0 1 11 45 A 3 3 0 0 1 10.875 39.001953 z M 44.875 39.001953 A 3 3 0 0 1 48 42 A 3 3 0 0 1 45 45 A 3 3 0 0 1 44.875 39.001953 z M 11 41 A 1 1 0 0 0 11 43 A 1 1 0 0 0 11 41 z M 45 41 A 1 1 0 0 0 45 43 A 1 1 0 0 0 45 41 z"/></svg>