<svg xmlns="http://www.w3.org/2000/svg" width="50" height="50" viewBox="0 0 50 50" version="1.1"><path d="" stroke="none" fill="#080404" fill-rule="evenodd"/><path d="M 30.581 6.562 C 28.481 8.662, 28.939 10.094, 32.322 12 C 35.813 13.968, 38.500 12.398, 38.500 8.391 C 38.500 5.885, 38.084 5.460, 35.375 5.196 C 33.451 5.009, 31.610 5.533, 30.581 6.562 M 25.250 9.662 C 24.563 9.940, 24 11.029, 24 12.083 C 24 13.527, 24.708 14, 26.872 14 C 29.458 14, 29.809 14.406, 30.395 18.067 C 31.212 23.180, 29.442 27.041, 25.717 28.270 C 22.004 29.496, 20 28.583, 20 25.666 C 20 23.387, 19.791 23.308, 15.750 24.070 C 13.412 24.510, 8.881 24.607, 5.681 24.286 L -0.139 23.701 0.181 27.551 C 0.672 33.471, 4.526 35.249, 18.084 35.807 L 28.862 36.251 29.543 32.620 C 30.274 28.726, 34.861 24, 37.910 24 C 38.876 24, 39.932 23.735, 40.255 23.411 C 41.350 22.317, 35.567 14, 33.712 14 C 32.720 14, 30.784 12.875, 29.409 11.500 C 28.034 10.125, 26.817 9.036, 26.705 9.079 C 26.592 9.122, 25.938 9.385, 25.250 9.662 M 0.702 17.632 C -0.564 18.898, -0.033 21.774, 1.582 22.393 C 3.964 23.307, 17.306 23.092, 18.848 22.115 C 19.590 21.645, 20.035 20.414, 19.837 19.380 C 19.521 17.731, 18.365 17.465, 10.440 17.215 C 5.470 17.058, 1.087 17.246, 0.702 17.632 M 33.740 27.532 C 30.463 30.809, 29.894 36.656, 32.750 37.707 C 33.712 38.061, 35.491 39.397, 36.702 40.675 C 39.395 43.518, 44.256 43.744, 46.851 41.149 C 47.913 40.087, 49.003 37.033, 49.407 33.990 C 50.294 27.300, 49.018 25.832, 41.791 25.233 C 37.036 24.838, 36.194 25.079, 33.740 27.532 M 44 35.941 C 44 37.333, 43.352 38, 42 38 C 40.889 38, 40 37.333, 40 36.500 C 40 35.675, 39.550 35, 39 35 C 38.450 35, 38 35.418, 38 35.929 C 38 37.095, 40.854 40, 42 40 C 43.117 40, 46 37.108, 46 35.988 C 46 35.509, 45.550 34.840, 45 34.500 C 44.450 34.160, 44 34.809, 44 35.941 M 3 37 C 3 39.948, 6.561 43, 10 43 C 12.897 43, 17 40.069, 17 38 C 17 37.450, 16.100 37, 15 37 C 13.900 37, 13 37.402, 13 37.893 C 13 39.145, 10.287 40.047, 8.538 39.376 C 7.734 39.068, 6.804 37.957, 6.471 36.908 C 5.669 34.382, 3 34.453, 3 37 M 8 37 C 8 37.550, 9.012 37.993, 10.250 37.985 C 12.069 37.972, 12.213 37.784, 11 37 C 9.061 35.747, 8 35.747, 8 37" stroke="none" fill="#040404" fill-rule="evenodd"/></svg>