<svg xmlns="http://www.w3.org/2000/svg"  viewBox="0 0 80 80" width="80px" height="80px"><path d="M 32.015625 3.988281 C 31.957031 3.988281 31.902344 3.992188 31.84375 4 L 30.070313 4 C 28.480469 4 26.953125 4.632813 25.828125 5.757813 L 24.292969 7.292969 C 24.03125 7.542969 23.925781 7.917969 24.019531 8.265625 C 24.109375 8.617188 24.382813 8.890625 24.734375 8.980469 C 25.082031 9.074219 25.457031 8.96875 25.707031 8.707031 L 27.242188 7.171875 C 27.992188 6.421875 29.007813 6 30.070313 6 L 31.382813 6 L 33.382813 10 L 31 10 C 29.558594 10 28.421875 10.875 27.71875 12.027344 C 20.683594 12.179688 15 17.929688 15 25 L 15 59 C 15 62.300781 17.699219 65 21 65 L 22.167969 65 L 18 75 L 20.472656 75 L 24.640625 65 L 55.359375 65 L 59.527344 75 L 62 75 L 57.832031 65 L 59 65 C 62.300781 65 65 62.300781 65 59 L 65 25 C 65 17.929688 59.316406 12.179688 52.28125 12.027344 C 51.578125 10.875 50.441406 10 49 10 L 46.617188 10 L 48.617188 6 L 49.929688 6 C 50.992188 6 52.007813 6.421875 52.757813 7.171875 L 54.292969 8.707031 C 54.542969 8.96875 54.917969 9.074219 55.265625 8.980469 C 55.617188 8.890625 55.890625 8.617188 55.980469 8.265625 C 56.074219 7.917969 55.96875 7.542969 55.707031 7.292969 L 54.171875 5.757813 C 53.046875 4.632813 51.519531 4 49.929688 4 L 48.164063 4 C 48.09375 3.988281 48.023438 3.984375 47.953125 3.988281 C 47.917969 3.988281 47.882813 3.992188 47.84375 4 L 32.140625 4 C 32.097656 3.992188 32.058594 3.988281 32.015625 3.988281 Z M 33.617188 6 L 46.382813 6 L 44.382813 10 L 35.617188 10 Z M 31 12 L 49 12 C 49.875 12 50.597656 12.554688 50.875 13.332031 L 51.109375 14 L 52 14 C 58.085938 14 63 18.914063 63 25 L 63 59 C 63 61.21875 61.21875 63 59 63 L 21 63 C 18.78125 63 17 61.21875 17 59 L 17 25 C 17 18.914063 21.914063 14 28 14 L 28.890625 14 L 29.125 13.332031 C 29.402344 12.554688 30.125 12 31 12 Z M 27 19 C 23.699219 19 21 21.699219 21 25 L 21 36 C 21 37.644531 22.355469 39 24 39 L 56 39 C 57.644531 39 59 37.644531 59 36 L 59 25 C 59 21.699219 56.300781 19 53 19 Z M 27 21 L 29 21 C 29 21.550781 29.449219 22 30 22 C 30.550781 22 31 21.550781 31 21 L 49 21 C 49 21.550781 49.449219 22 50 22 C 50.550781 22 51 21.550781 51 21 L 53 21 C 55.21875 21 57 22.78125 57 25 L 57 36 C 57 36.566406 56.566406 37 56 37 L 51 37 C 51 36.449219 50.550781 36 50 36 C 49.449219 36 49 36.449219 49 37 L 31 37 C 31 36.449219 30.550781 36 30 36 C 29.449219 36 29 36.449219 29 37 L 24 37 C 23.433594 37 23 36.566406 23 36 L 23 25 C 23 22.78125 24.78125 21 27 21 Z M 30 24 C 29.449219 24 29 24.449219 29 25 C 29 25.550781 29.449219 26 30 26 C 30.550781 26 31 25.550781 31 25 C 31 24.449219 30.550781 24 30 24 Z M 50 24 C 49.449219 24 49 24.449219 49 25 C 49 25.550781 49.449219 26 50 26 C 50.550781 26 51 25.550781 51 25 C 51 24.449219 50.550781 24 50 24 Z M 30 28 C 29.449219 28 29 28.449219 29 29 C 29 29.550781 29.449219 30 30 30 C 30.550781 30 31 29.550781 31 29 C 31 28.449219 30.550781 28 30 28 Z M 50 28 C 49.449219 28 49 28.449219 49 29 C 49 29.550781 49.449219 30 50 30 C 50.550781 30 51 29.550781 51 29 C 51 28.449219 50.550781 28 50 28 Z M 30 32 C 29.449219 32 29 32.449219 29 33 C 29 33.550781 29.449219 34 30 34 C 30.550781 34 31 33.550781 31 33 C 31 32.449219 30.550781 32 30 32 Z M 50 32 C 49.449219 32 49 32.449219 49 33 C 49 33.550781 49.449219 34 50 34 C 50.550781 34 51 33.550781 51 33 C 51 32.449219 50.550781 32 50 32 Z M 40 49 C 37.25 49 35 51.25 35 54 C 35 56.75 37.25 59 40 59 C 42.75 59 45 56.75 45 54 C 45 51.25 42.75 49 40 49 Z M 40 51 C 41.667969 51 43 52.332031 43 54 C 43 55.667969 41.667969 57 40 57 C 38.332031 57 37 55.667969 37 54 C 37 52.332031 38.332031 51 40 51 Z M 28 53 C 27.449219 53 27 53.449219 27 54 C 27 54.550781 27.449219 55 28 55 C 28.550781 55 29 54.550781 29 54 C 29 53.449219 28.550781 53 28 53 Z M 32 53 C 31.449219 53 31 53.449219 31 54 C 31 54.550781 31.449219 55 32 55 C 32.550781 55 33 54.550781 33 54 C 33 53.449219 32.550781 53 32 53 Z M 48 53 C 47.449219 53 47 53.449219 47 54 C 47 54.550781 47.449219 55 48 55 C 48.550781 55 49 54.550781 49 54 C 49 53.449219 48.550781 53 48 53 Z M 52 53 C 51.449219 53 51 53.449219 51 54 C 51 54.550781 51.449219 55 52 55 C 52.550781 55 53 54.550781 53 54 C 53 53.449219 52.550781 53 52 53 Z M 25.828125 69 L 25.003906 71 L 55.003906 71 L 54.175781 69 Z"/></svg>